# xmcd
#
# Track frame offsets: 
#        150
#        19767
#        42875
#        66342
#        81792
#        98682
#        130910
#        148497
#        165610
#        183905
#        204052
#        221742
#        238100
#        261265
#        278550
#        294492
#        316127
#
# Disc length: 4691 seconds
#
# Revision: 1
# Processed by: cddbd v1.5.2PL0 Copyright (c) Steve Scherf et al.
# Submitted via: ExactAudioCopy v0.99pb5
#
DISCID=f7125111
DTITLE=Various Artist - Solar Disco Box Set CD1
DYEAR=2004
DGENRE=Disco
TTITLE0=Shalamar - I Can Make You Feel Good
TTITLE1=Whispers - It's A Love Thing
TTITLE2=Midnight Star - Midas Touch
TTITLE3=Carrie Lucas - Dance With You
TTITLE4=Shalamar - Friends
TTITLE5=Lakeside - It's All The Way Live
TTITLE6=Whispers - I Can Make It Better
TTITLE7=Shalamar - Make That Move
TTITLE8=Dynasty - Does That Ring A Bell
TTITLE9=Midnight Star - Wet My Whistle
TTITLE10=Shalamar - Uptown Festival (Part 1)
TTITLE11=Whispers - My Girl
TTITLE12=Soul Train - Soul Train '75
TTITLE13=Bill Wolfer - Papa Was A Rollin' Stone
TTITLE14=Whispers - Tonight
TTITLE15=Dynasty - Groove Control 
TTITLE16=Various Artist - And The Mix Goes On
EXTD=
EXTT0=
EXTT1=
EXTT2=
EXTT3=
EXTT4=
EXTT5=
EXTT6=
EXTT7=
EXTT8=
EXTT9=
EXTT10=
EXTT11=
EXTT12=
EXTT13=
EXTT14=
EXTT15=
EXTT16=
PLAYORDER=
